<?xml version="1.0" encoding="utf-8"?>
<svg version="1.1" xmlns:xlink="http://www.w3.org/1999/xlink" width="15px" height="17px" xmlns="http://www.w3.org/2000/svg">
  <g transform="matrix(1 0 0 1 -19 -184 )">
    <path d="M 5.0984 15.51803  L 7.47986 15.51803  L 5.40107 16.31166  L 5.0984 15.51803  Z M 14.41049 12.8738  L 12.900559999999999 13.4495  L 12.900559999999999 8.91534  L 14.41049 12.87361  Z M 9.76195 0.6885300000000001  L 10.064430000000002 1.4819700000000005  L 7.682970000000001 1.4819700000000005  L 9.76195 0.6885300000000001  Z M 2.26227 3.54993  L 2.26227 8.0858  L 0.7515800000000001 4.126200000000001  L 2.26208 3.54993  Z M 12.403520000000002 1.9793900000000004  L 3 1.9793900000000004  L 3 15.020610000000001  L 12.403520000000002 15.020610000000001  L 12.403520000000002 1.9793900000000004  Z M 8.915213582247452 3.5160149999999994  C 8.917336075883815 3.5160149999999994  8.91945845137416 3.5160466701918445  8.92158 3.516110000000001  L 11.54168 3.516110000000001  C 11.65699063858879 3.5195521085292203  11.748683582247452 3.614022998097809  11.748683582247452 3.7293850000000006  C 11.748683582247452 3.8447470019021885  11.656990638588788 3.939217891470781  11.54168 3.94266  L 8.921579999999999 3.94266  C 8.91945845137416 3.9427233298081568  8.917336075883815 3.942755  8.915213582247452 3.942755  C 8.797372585176054 3.942755  8.701843582247452 3.847225997071398  8.701843582247452 3.7293850000000006  C 8.701843582247452 3.6115440029286034  8.797372585176054 3.5160149999999994  8.915213582247452 3.5160149999999994  Z M 8.92158 4.943960000000001  L 11.54168 4.943960000000001  C 11.589179999999999 4.943960000000001  11.63212 4.95973  11.66746 4.985759999999999  C 11.73586 5.034780000000001  11.76854 5.119900000000001  11.75049 5.201979999999999  C 11.729209999999998 5.298499999999999  11.645990000000001 5.367470000000001  11.54833 5.3705099999999995  L 8.921769999999997 5.3705099999999995  C 8.919648451374142 5.370573329808156  8.91752607588383 5.370604999999998  8.91540358224745 5.370604999999998  C 8.797562585176053 5.370604999999998  8.70203358224745 5.275075997071394  8.70203358224745 5.157235  C 8.70203358224745 5.039394002928603  8.797562585176053 4.943864999999999  8.91540358224745 4.943864999999999  C 8.91752607588383 4.943864999999999  8.919648451374142 4.943896670191842  8.921769999999997 4.943959999999999  Z M 8.714576417752557 6.586034999999999  C 8.714576417752557 6.470672998097813  8.806269361411216 6.376202108529226  8.92158 6.3727599999999995  L 11.54168 6.3727599999999995  C 11.656990638588784 6.376202108529226  11.748683582247438 6.470672998097815  11.748683582247438 6.586034999999999  C 11.748683582247438 6.701397001902183  11.65699063858878 6.795867891470774  11.54168 6.79931  L 8.921579999999999 6.799309999999998  C 8.806269361411214 6.795867891470774  8.714576417752557 6.701397001902187  8.714576417752557 6.586034999999999  Z M 11.51584 8.709380000000001  L 3.99944 8.709379999999998  C 3.885202373589131 8.704555809082853  3.7950724718827598 8.610539442477187  3.7950724718827598 8.496199999999998  C 3.7950724718827598 8.38186055752281  3.885202373589131 8.287844190917145  3.99944 8.28302  L 11.515649999999999 8.283019999999999  C 11.63096063858878 8.286462108529225  11.722653582247439 8.380932998097814  11.722653582247439 8.496294999999998  C 11.722653582247439 8.611657001902184  11.63096063858878 8.706127891470773  11.515649999999999 8.709569999999998  Z M 11.729209999999998 9.7901  C 11.729209999999998 9.908280000000001  11.63421 10.003280000000004  11.51584 10.003280000000004  L 3.99944 10.00328  C 3.997318451374165 10.003343329808157  3.9951960758837983 10.003375000000002  3.993073582247439 10.003375000000002  C 3.875232585176043 10.003375000000002  3.77970358224744 9.907845997071398  3.77970358224744 9.790005  C 3.77970358224744 9.672164002928604  3.875232585176043 9.576635000000001  3.993073582247439 9.576635000000001  C 3.9951960758837983 9.576635000000001  3.997318451374165 9.576666670191845  3.99944 9.576730000000001  L 11.515649999999999 9.576730000000001  C 11.633449999999998 9.576730000000001  11.729019999999998 9.672110000000002  11.729019999999998 9.7901  Z M 3.73097 3.177150000000001  C 3.73097 3.0593499999999985  3.8267299999999995 2.96378  3.9443400000000004 2.96378  L 7.459340000000001 2.96378  C 7.576759999999999 2.96378  7.6729 3.05973  7.6729 3.177150000000001  L 7.6729 7.137319999999999  C 7.6729 7.25512  7.577329999999999 7.35069  7.459529999999999 7.35069  L 3.9441500000000014 7.35069  C 3.8260530397900947 7.350690765445911  3.730779234554088 7.255416960209905  3.730779234554088 7.137890765445912  L 3.73078 3.177150000000001  Z M 7.667200000000001 12.589749999999999  L 3.970369999999999 12.589749999999995  C 3.8550593614112176 12.586307891470774  3.763366417752559 12.491837001902184  3.763366417752559 12.376475  C 3.763366417752559 12.261112998097815  3.8550593614112176 12.166642108529224  3.97037 12.1632  L 7.667010000000001 12.163199999999996  C 7.78124762641087 12.168024190917144  7.871377528117242 12.262040557522809  7.871377528117242 12.376379999999997  C 7.871377528117242 12.490719442477186  7.78124762641087 12.58473580908285  7.667010000000001 12.589559999999999  Z M 8.23273358224744 11.083714999999998  C 8.23273358224744 11.199077001902186  8.141040638588782 11.293547891470773  8.025730000000001 11.296990000000001  L 3.990889999999999 11.296989999999997  C 3.9887684513741646 11.297053329808154  3.986646075883797 11.297085  3.984523582247439 11.297085  C 3.866682585176044 11.297085  3.771153582247439 11.201555997071395  3.771153582247439 11.083714999999998  C 3.771153582247439 10.9658740029286  3.866682585176044 10.870345  3.984523582247439 10.870345  C 3.986646075883797 10.870345  3.9887684513741646 10.870376670191842  3.99089 10.870440000000002  L 8.02573 10.870439999999995  C 8.141040638588784 10.873882108529223  8.23273358224744 10.968352998097814  8.23273358224744 11.083714999999998  Z M 10.153730000000001 14.255859999999998  C 9.066170000000001 14.255859999999998  8.181340000000002 13.371220000000001  8.181340000000002 12.283279999999998  C 8.181340000000002 11.195340000000002  9.06617 10.3107  10.153920000000001 10.3107  C 11.241670000000001 10.3107  12.1265 11.195340000000002  12.1265 12.283279999999998  C 12.1265 13.371220000000001  11.241480000000001 14.255859999999998  10.153920000000001 14.255859999999998  Z " fill-rule="nonzero" fill="#ffffff" stroke="none" transform="matrix(1 0 0 1 19 184 )" />
  </g>
</svg>